<?xml version="1.0" encoding="utf-8"?>
<!-- Generator: Adobe Illustrator 23.0.4, SVG Export Plug-In . SVG Version: 6.00 Build 0)  -->
<svg version="1.1" id="Capa_1" xmlns="http://www.w3.org/2000/svg" xmlns:xlink="http://www.w3.org/1999/xlink" x="0px" y="0px"
	 viewBox="0 0 374.7 90" style="enable-background:new 0 0 374.7 90;" xml:space="preserve">
<style type="text/css">
	.st0{fill:#12356A;}
	.st1{fill:#FFFFFF;}
</style>
<g>
	<path id="XMLID_20_" class="st1" d="M89.2,12.9L71.8,25.5L54.5,12.9L19.7,38.2v38.9h20.2v-8.6H28.3v-26l26.2-19.1l10.1,7.4
		l-10.2,7.4v38.9h13.7h10.6h10.6V38.2l-10.2-7.4l10.1-7.4l26.2,19.2v26h-12.6v8.6h21.1v-39L89.2,12.9z M80.7,42.6v26h-2H68.1H63v-26
		l8.9-6.5L80.7,42.6z"/>
	<g>
		<path id="XMLID_19_" class="st1" d="M168.1,24.4c0,2.2-0.5,4.2-1.5,5.9s-2.4,3.1-4.3,4.1c-1.9,1-4,1.5-6.4,1.5h-8.6v15h-5.8v-38
			h14.4c1.8,0,3.5,0.3,5,0.9c1.5,0.6,2.9,1.4,3.9,2.4c1.1,1,1.9,2.3,2.4,3.6C167.8,21.2,168.1,22.7,168.1,24.4 M162.3,24.4
			c0-2-0.6-3.5-1.8-4.7c-1.2-1.1-2.9-1.7-4.9-1.7h-8.3v12.7h8.3c2.1,0,3.7-0.6,4.9-1.7S162.3,26.4,162.3,24.4"/>
		<path id="XMLID_18_" class="st1" d="M200.3,50.9h-6.2l-2.6-7.6h-15l-2.6,7.6h-6.2l14-38h4.6L200.3,50.9z M189.9,38.3l-5.8-16.9
			l-5.9,16.9H189.9z"/>
		<path id="XMLID_17_" class="st1" d="M230.6,50.9h-6.7l-8-16h-7.2v16h-5.8v-38h14.8c2.3,0,4.4,0.5,6.2,1.4s3.2,2.3,4.1,3.9
			c1,1.7,1.4,3.6,1.4,5.8c0,2.6-0.7,4.8-2.1,6.5c-1.4,1.7-3.2,2.9-5.5,3.6L230.6,50.9z M223.6,24c0-1.9-0.6-3.3-1.8-4.4
			s-2.7-1.6-4.7-1.6h-8.5v11.9h8.5c1.9,0,3.5-0.5,4.7-1.6C223,27.3,223.6,25.9,223.6,24"/>
		<polygon id="XMLID_16_" class="st1" points="258.3,18.1 247.9,18.1 247.9,50.9 242.1,50.9 242.1,18.1 231.6,18.1 231.6,12.9 
			258.3,12.9 		"/>
		<polygon id="XMLID_15_" class="st1" points="290.7,50.9 285.4,50.9 267.9,24.1 267.9,50.9 262,50.9 262,12.9 267.4,12.9 285,39.6 
			285,12.9 290.7,12.9 		"/>
		<polygon id="XMLID_14_" class="st1" points="322.2,50.9 297.8,50.9 297.8,12.9 322.2,12.9 322.2,18 303.6,18 303.6,29.1 
			319.4,29.1 319.4,34.3 303.6,34.3 303.6,45.7 322.2,45.7 		"/>
		<path id="XMLID_13_" class="st1" d="M355,50.9h-6.7l-8-16H333v16h-5.8v-38H342c2.3,0,4.4,0.5,6.2,1.4c1.8,0.9,3.2,2.3,4.1,3.9
			c1,1.7,1.4,3.6,1.4,5.8c0,2.6-0.7,4.8-2.1,6.5s-3.2,2.9-5.5,3.6L355,50.9z M348,24c0-1.9-0.6-3.3-1.8-4.4
			c-1.2-1.1-2.7-1.6-4.7-1.6H333v11.9h8.5c1.9,0,3.5-0.5,4.7-1.6C347.4,27.3,348,25.9,348,24"/>
	</g>
	<g>
		<path id="XMLID_12_" class="st1" d="M141.5,57.4h4.7V61h-4.7V57.4z M141.5,63.1h4.7v14.7h-4.7V63.1z"/>
		<path id="XMLID_11_" class="st1" d="M163.3,77.8v-9.1c0-1.8-1.2-2.1-1.9-2.1c-0.6,0-1.9,0.3-1.9,2.1v9.1h-4.7V62.5h4.5v1.2
			c0.9-0.9,2.3-1.4,3.5-1.4c1.5,0,2.6,0.5,3.4,1.3c1.3,1.3,1.5,2.7,1.5,4.4v9.8H163.3L163.3,77.8z"/>
		<path id="XMLID_10_" class="st1" d="M193.3,77.8v-9.1c0-1.8-1.2-2.1-1.9-2.1c-0.6,0-1.9,0.3-1.9,2.1v9.1h-4.7v-9.1
			c0-1.8-1.2-2.1-1.9-2.1c-0.6,0-1.9,0.3-1.9,2.1v9.1h-4.7V62.5h4.5v1.2c0.9-0.9,2.3-1.4,3.5-1.4c1.5,0,2.7,0.5,3.7,1.6
			c1.3-1.2,2.6-1.6,4.3-1.6c1.5,0,2.8,0.5,3.7,1.3c1.3,1.3,1.7,2.7,1.7,4.4v9.8H193.3L193.3,77.8z"/>
		<path id="XMLID_9_" class="st1" d="M217.5,76c-0.9,1-2.4,2-4.9,2s-4-1-4.9-2c-1.3-1.4-1.7-2.8-1.7-5.8s0.4-4.5,1.7-5.8
			c0.9-1,2.4-2,4.9-2s4,1,4.9,2c1.3,1.4,1.7,2.9,1.7,5.8C219.2,73.2,218.8,74.6,217.5,76 M213.9,67c-0.3-0.3-0.7-0.4-1.2-0.4
			c-0.6,0-1,0.1-1.2,0.4c-0.6,0.6-0.7,1.7-0.7,3.2s0.1,2.6,0.7,3.2c0.3,0.3,0.7,0.4,1.2,0.4c0.6,0,1-0.1,1.2-0.4
			c0.6-0.6,0.7-1.7,0.7-3.2C214.5,68.7,214.5,67.6,213.9,67"/>
		<path id="XMLID_8_" class="st1" d="M239.2,76.6c-0.9,0.9-2.2,1.4-3.7,1.4c-1.6,0-2.6-0.5-3.5-1.4v1.2h-4.5V57.6h4.7v6
			c0.8-0.9,1.9-1.3,3.4-1.3s2.8,0.5,3.7,1.4c1.5,1.5,1.4,4.2,1.4,6.4C240.6,72.4,240.7,75.1,239.2,76.6 M234,66.6
			c-1.7,0-1.9,1.4-1.9,3.6s0.2,3.6,1.9,3.6s1.9-1.4,1.9-3.6C235.9,67.9,235.7,66.6,234,66.6"/>
		<path id="XMLID_7_" class="st1" d="M248.8,57.4h4.7V61h-4.7V57.4z M248.8,63.1h4.7v14.7h-4.7V63.1z"/>
		<path id="XMLID_6_" class="st1" d="M266.8,77.8c-3.4,0-4.7-2.4-4.7-4.5V57.6h4.7V73c0,0.6,0.3,0.9,0.9,0.9h1.6v3.9H266.8z"/>
		<path id="XMLID_5_" class="st1" d="M277.1,57.4h4.7V61h-4.7V57.4z M277.1,63.1h4.7v14.7h-4.7V63.1z"/>
		<path id="XMLID_4_" class="st1" d="M297.9,77.8v-1.2c-0.9,0.9-1.8,1.4-3.4,1.4c-1.5,0-2.8-0.5-3.7-1.4c-0.9-0.9-1.3-2.2-1.3-3.6
			c0-2.3,1.6-4.4,5.2-4.4h3.1v-0.4c0-1.4-0.7-1.9-2.3-1.9c-1.2,0-1.7,0.3-2.4,1l-2.9-2.9c1.6-1.6,3-2,5.6-2c4.4,0,6.7,1.8,6.7,5.5
			v9.9H297.9z M297.8,71.7h-2.4c-0.9,0-1.5,0.5-1.5,1.2s0.5,1.3,1.5,1.3c0.9,0,1.3-0.1,1.8-0.6c0.3-0.3,0.5-0.8,0.5-1.5L297.8,71.7
			L297.8,71.7z"/>
		<path id="XMLID_3_" class="st1" d="M319.1,67.4c-0.5-0.5-0.9-0.8-1.7-0.8c-0.6,0-1.9,0.4-1.9,2.1v9.1h-4.7V62.5h4.5v1.2
			c0.7-0.7,2-1.4,3.6-1.4c1.5,0,2.5,0.4,3.6,1.4L319.1,67.4z"/>
		<path id="XMLID_2_" class="st1" d="M329.6,57.4h4.7V61h-4.7V57.4z M329.6,63.1h4.7v14.7h-4.7V63.1z"/>
		<path id="XMLID_1_" class="st1" d="M350.4,77.8v-1.2c-0.9,0.9-1.8,1.4-3.4,1.4c-1.5,0-2.8-0.5-3.7-1.4c-0.9-0.9-1.3-2.2-1.3-3.6
			c0-2.3,1.6-4.4,5.2-4.4h3.1v-0.4c0-1.4-0.7-1.9-2.3-1.9c-1.2,0-1.7,0.3-2.4,1l-2.9-2.9c1.6-1.6,3-2,5.6-2c4.4,0,6.7,1.8,6.7,5.5
			v9.9H350.4z M350.3,71.7h-2.4c-0.9,0-1.5,0.5-1.5,1.2s0.5,1.3,1.5,1.3c0.9,0,1.3-0.1,1.8-0.6c0.3-0.3,0.5-0.8,0.5-1.5L350.3,71.7
			L350.3,71.7z"/>
	</g>
</g>
</svg>
