<svg xmlns="http://www.w3.org/2000/svg" xmlns:xlink="http://www.w3.org/1999/xlink" width="180" height="120" viewBox="0 0 180 120"><defs><clipPath id="b"><rect width="180" height="120"/></clipPath></defs><g id="a" clip-path="url(#b)"><g transform="translate(-17706 678)"><rect width="169.237" height="1.017" transform="translate(17711 -583.014)" fill="#cfd1d6"/><path d="M510.026,206.989h12.3v-3.161h-8.767v-3.391h7.613v-3.161h-7.613V194h8.651v-3.161H510.026Zm-12.273-3.115v-3.552h4.107c1.822,0,2.63.669,2.63,1.753v.046c0,1.2-.946,1.753-2.515,1.753Zm0-6.506v-3.415h3.507c1.5,0,2.33.6,2.33,1.662v.046c0,1.2-.992,1.707-2.561,1.707Zm-3.461,9.62h7.683c3.645,0,6.045-1.476,6.045-4.429v-.046c0-2.169-1.154-3.253-3.022-3.968a3.756,3.756,0,0,0,2.122-3.483v-.047a3.705,3.705,0,0,0-1.107-2.745,5.83,5.83,0,0,0-4.222-1.431h-7.5Zm-6.668,0h3.553V190.839h-3.553Zm-12.365-8.305v-4.636h3.53c1.73,0,2.791.784,2.791,2.307v.046c0,1.361-.992,2.284-2.722,2.284Zm-3.553,8.305h3.553v-5.167h2.791l3.461,5.167h4.153l-3.945-5.768a5.015,5.015,0,0,0,3.461-5.006v-.046a5.067,5.067,0,0,0-1.385-3.691,6.436,6.436,0,0,0-4.706-1.639h-7.382Zm-12.319-6.76,2.145-5.237,2.145,5.237Zm-6.368,6.76h3.622l1.477-3.622h6.829l1.477,3.622h3.714l-6.921-16.265H459.94Zm-7.151.277a8.254,8.254,0,0,0,6.621-2.884l-2.261-2.284a5.828,5.828,0,0,1-4.245,1.892,4.8,4.8,0,0,1-4.683-5.076v-.046a4.785,4.785,0,0,1,4.683-5.03,5.96,5.96,0,0,1,4.13,1.823l2.261-2.607a8.33,8.33,0,0,0-6.367-2.492,8.208,8.208,0,0,0-8.421,8.352v.046a8.152,8.152,0,0,0,8.282,8.305" transform="translate(17357.914 -766.266)" fill="#cfd1d6"/><path d="M487.384,149.55c16.95,0,26.995-6.027,36.035-15.695l-12.3-12.431c-6.906,6.278-13.059,10.3-23.1,10.3-15.067,0-25.488-12.556-25.488-27.622v-.251c0-15.067,10.672-27.372,25.488-27.372,8.788,0,15.694,3.767,22.474,9.92l12.3-14.188c-8.161-8.036-18.08-13.56-34.654-13.56-26.995,0-45.829,20.466-45.829,45.452v.251c0,25.237,19.211,45.2,45.076,45.2" transform="translate(17356.82 -735.646)" fill="#cfd1d6"/><path d="M391.288,206.365h12.3V203.2h-8.767v-3.391h7.614v-3.161h-7.614v-3.277h8.652v-3.161H391.288Zm-10.267,0h3.553V193.492h4.914v-3.277h-13.38v3.277h4.914Zm-21.063,0h3.507V196.1l7.821,10.266h3.022V190.215H370.8v9.944l-7.568-9.944h-3.276Zm-14.535,0h12.3V203.2h-8.767v-3.391h7.613v-3.161h-7.613v-3.277H357.6v-3.161H345.423Zm-9.39.277a10.48,10.48,0,0,0,6.9-2.561v-7.013h-7.013v3.068h3.576v2.307a5.671,5.671,0,0,1-3.346.969,4.839,4.839,0,0,1-4.891-5.122v-.046a4.851,4.851,0,0,1,4.637-5.03,5.948,5.948,0,0,1,4.222,1.638l2.238-2.7a8.865,8.865,0,0,0-6.344-2.215,8.289,8.289,0,0,0-8.467,8.352v.046a8.082,8.082,0,0,0,8.49,8.305" transform="translate(17383.457 -766.121)" fill="#cfd1d6"/><path d="M373.748,149.55a57.048,57.048,0,0,0,37.542-13.937V97.443H373.12v16.7h19.462V126.7c-4.9,3.515-11.175,5.273-18.206,5.273-15.57,0-26.619-11.8-26.619-27.873v-.251c0-14.941,11.175-27.372,25.237-27.372,10.17,0,16.2,3.265,22.977,8.915L408.151,70.7c-9.165-7.785-18.708-12.053-34.529-12.053-26.618,0-46.079,20.466-46.079,45.452v.251c0,25.991,18.834,45.2,46.205,45.2" transform="translate(17383.457 -735.646)" fill="#cfd1d6"/></g></g></svg>